<?xml version="1.0" encoding="UTF-8"?>
<svg version="1.1" xmlns="http://www.w3.org/2000/svg" width="117" height="170">
<path d="M0 0 C0.84082123 -0.0049649 1.68164246 -0.00992981 2.54794312 -0.01504517 C5.337553 -0.02968429 8.12710601 -0.03647203 10.91674805 -0.04199219 C12.85247296 -0.04774262 14.78819786 -0.05350037 16.72392273 -0.05926514 C20.78681708 -0.0697804 24.84969161 -0.07561948 28.91259766 -0.07910156 C34.11809972 -0.08458446 39.32333998 -0.10860593 44.52875996 -0.13707352 C48.52905542 -0.15570082 52.52928786 -0.16090557 56.52962303 -0.16243744 C58.44856382 -0.16546477 60.36750347 -0.17349602 62.28640175 -0.18662262 C64.97238671 -0.20368345 67.65773279 -0.2018027 70.34375 -0.1953125 C71.13614578 -0.20452728 71.92854156 -0.21374207 72.74494934 -0.22323608 C77.30244424 -0.18875118 80.32056151 0.21567052 83.8659668 3.16113281 C87.55205096 7.52509151 87.28134945 11.81298177 87.22241211 17.25 C87.22445648 18.1562059 87.22650085 19.0624118 87.22860718 19.99607849 C87.23160915 22.98359522 87.2131598 25.97055694 87.1940918 28.95800781 C87.19103388 31.0335476 87.18915801 33.10908944 87.18841553 35.18463135 C87.1838166 39.52892946 87.16940277 43.87304178 87.1472168 48.21728516 C87.11886431 53.79854349 87.10799785 59.37965595 87.1035347 64.96097946 C87.09938856 69.24334179 87.08957901 73.52567436 87.07765961 77.80802155 C87.07194588 79.86701467 87.06719084 81.92601069 87.06339264 83.98500824 C87.05655527 86.85333859 87.04293686 89.72155079 87.02709961 92.58984375 C87.02598175 93.44801193 87.02486389 94.30618011 87.02371216 95.19035339 C86.98065743 101.04644218 86.98065743 101.04644218 85.8659668 102.16113281 C79.49592778 102.52170106 79.49592778 102.52170106 77.12661743 101.16558838 C73.81911518 99.69599419 70.56242722 99.88289518 67.00805664 99.90234375 C66.2206459 99.89883911 65.43323517 99.89533447 64.6219635 99.89172363 C62.02352035 99.88293245 59.42535014 99.88874507 56.8269043 99.89550781 C55.02137195 99.89416068 53.21583995 99.89221975 51.41030884 99.88970947 C47.62921693 99.88676198 43.84821958 99.89104482 40.06713867 99.90039062 C35.21343169 99.91180128 30.3599455 99.90521314 25.50624657 99.8932457 C21.77971726 99.88603091 18.05324061 99.88831298 14.32670975 99.89350128 C12.53648477 99.89483799 10.74625506 99.89318933 8.95603561 99.88854218 C6.4589234 99.88348139 3.96217304 99.89117994 1.46508789 99.90234375 C0.7211528 99.89829529 -0.02278229 99.89424683 -0.78926086 99.89007568 C-4.91542976 99.7955194 -4.91542976 99.7955194 -8.1340332 102.16113281 C-11.6965332 102.34863281 -11.6965332 102.34863281 -15.1340332 102.16113281 C-16.89269695 100.40246906 -16.26017146 98.08544287 -16.26956177 95.74247742 C-16.26753754 94.96539932 -16.26551331 94.18832123 -16.26342773 93.38769531 C-16.26518005 92.57295242 -16.26693237 91.75820953 -16.26873779 90.91877747 C-16.27316121 88.20787463 -16.27021444 85.49703639 -16.2668457 82.78613281 C-16.26751912 80.90340157 -16.26848947 79.0206704 -16.26974487 77.13793945 C-16.27122293 73.18000465 -16.26906578 69.22209235 -16.2644043 65.26416016 C-16.25873812 60.20821312 -16.26196545 55.15231953 -16.26797676 50.09637451 C-16.27160619 46.20143234 -16.27043233 42.30650263 -16.26784897 38.41156006 C-16.26718465 36.54897048 -16.26799071 34.68637974 -16.27032852 32.8237915 C-16.27289069 30.20573987 -16.26896329 27.58777203 -16.26342773 24.96972656 C-16.26545197 24.20884232 -16.2674762 23.44795807 -16.26956177 22.66401672 C-16.21255304 7.98376021 -16.21255304 7.98376021 -12.6965332 3.66113281 C-8.59480056 -0.34055757 -5.47677716 0.00766751 0 0 Z M7.8659668 59.16113281 C7.5359668 59.82113281 7.2059668 60.48113281 6.8659668 61.16113281 C26.0059668 61.16113281 45.1459668 61.16113281 64.8659668 61.16113281 C63.05899783 58.93368686 63.05899783 58.93368686 60.53744507 58.92062378 C59.07850327 58.92728561 59.07850327 58.92728561 57.59008789 58.93408203 C55.93860245 58.93430862 55.93860245 58.93430862 54.25375366 58.93453979 C52.46465073 58.95002365 52.46465073 58.95002365 50.6394043 58.96582031 C49.42145172 58.96865021 48.20349915 58.9714801 46.94863892 58.97439575 C43.04598297 58.98562025 39.14355377 59.01072909 35.2409668 59.03613281 C32.6003451 59.04615967 29.95971982 59.05528603 27.3190918 59.06347656 C20.834639 59.085567 14.35031909 59.11906689 7.8659668 59.16113281 Z M3.8659668 68.16113281 C3.5359668 68.82113281 3.2059668 69.48113281 2.8659668 70.16113281 C24.3159668 70.16113281 45.7659668 70.16113281 67.8659668 70.16113281 C67.3709668 69.17113281 67.3709668 69.17113281 66.8659668 68.16113281 C46.0759668 68.16113281 25.2859668 68.16113281 3.8659668 68.16113281 Z M0.8659668 77.16113281 C0.5359668 77.82113281 0.2059668 78.48113281 -0.1340332 79.16113281 C23.6259668 79.16113281 47.3859668 79.16113281 71.8659668 79.16113281 C71.3709668 78.17113281 71.3709668 78.17113281 70.8659668 77.16113281 C47.7659668 77.16113281 24.6659668 77.16113281 0.8659668 77.16113281 Z M-2.1340332 87.16113281 C-3.1240332 88.64613281 -3.1240332 88.64613281 -4.1340332 90.16113281 C22.2659668 90.16113281 48.6659668 90.16113281 75.8659668 90.16113281 C74.8759668 88.67613281 74.8759668 88.67613281 73.8659668 87.16113281 C71.39343274 86.8584908 69.16949619 86.75148432 66.6940918 86.77294922 C65.58656555 86.76506378 65.58656555 86.76506378 64.45666504 86.75701904 C62.00955211 86.74378643 59.56308665 86.75256824 57.1159668 86.76269531 C55.41967646 86.7606755 53.72338697 86.75776485 52.02709961 86.7539978 C48.46939845 86.74957004 44.91192301 86.7560199 41.35424805 86.77001953 C36.78735386 86.78711181 32.22098854 86.77727302 27.65411377 86.75930214 C24.15059402 86.74847641 20.64720024 86.75190503 17.14367676 86.75968552 C15.45951271 86.76169089 13.77533734 86.75921648 12.09118652 86.75224686 C9.73976215 86.74465205 7.3892016 86.75620786 5.0378418 86.77294922 C4.33751831 86.76687653 3.63719482 86.76080383 2.91564941 86.75454712 C0.77626086 86.74786235 0.77626086 86.74786235 -2.1340332 87.16113281 Z " fill="#152F84" transform="translate(22.134033203125,2.8388671875)"/>
<path d="M0 0 C0.95018005 0.00359528 1.90036011 0.00719055 2.8793335 0.01089478 C4.37184883 0.01067574 4.37184883 0.01067574 5.89451599 0.01045227 C9.20059348 0.01115186 12.5066154 0.01894637 15.81268311 0.02676392 C18.09811879 0.02862793 20.38355487 0.03005191 22.66899109 0.03105164 C28.69751073 0.03487809 34.72600644 0.04470947 40.7545166 0.05575562 C46.90085527 0.06596699 53.04719778 0.07054867 59.19354248 0.07559204 C71.26321447 0.08633162 83.33286868 0.10340957 95.40252686 0.12442017 C95.40252686 3.75442017 95.40252686 7.38442017 95.40252686 11.12442017 C61.41252686 11.12442017 27.42252686 11.12442017 -7.59747314 11.12442017 C-7.59747314 0.01214955 -7.59747314 0.01214955 0 0 Z " fill="#183388" transform="translate(13.59747314453125,123.87557983398438)"/>
<path d="M0 0 C31.02 0 62.04 0 94 0 C94 3.3 94 6.6 94 10 C92.14652632 11.85347368 89.51474674 11.12654303 87.04824829 11.13552856 C85.76559586 11.13249222 85.76559586 11.13249222 84.45703125 11.12939453 C83.56116302 11.13114685 82.6652948 11.13289917 81.74227905 11.13470459 C78.76566663 11.13912447 75.78911308 11.13618464 72.8125 11.1328125 C70.75366199 11.1334855 68.69482406 11.13445549 66.63598633 11.13571167 C62.31493373 11.13718883 57.99390177 11.13503351 53.67285156 11.13037109 C48.12063454 11.1246738 42.56846586 11.12795271 37.01625061 11.13394356 C32.76305779 11.13754869 28.50987651 11.13641081 24.25668335 11.13381577 C22.20885207 11.13314636 20.16101977 11.13397538 18.1131897 11.13629532 C15.25642092 11.13882106 12.39973157 11.13498236 9.54296875 11.12939453 C8.68786713 11.13141876 7.8327655 11.13344299 6.95175171 11.13552856 C1.11426239 11.11426239 1.11426239 11.11426239 0 10 C0 6.7 0 3.4 0 0 Z " fill="#122D85" transform="translate(11,107)"/>
<path d="M0 0 C38.61 0 77.22 0 117 0 C117 0.33 117 0.66 117 1 C78.72 1 40.44 1 1 1 C1.33 48.52 1.66 96.04 2 145 C5.63 145.33 9.26 145.66 13 146 C15 148 15 148 15.4375 150.875 C15 154 15 154 12.6875 156.375 C10 158 10 158 7 158 C7.33 160.64 7.66 163.28 8 166 C6.02 166 4.04 166 2 166 C2.02320313 164.72382813 2.04640625 163.44765625 2.0703125 162.1328125 C2.08906829 160.4635475 2.10726869 158.7942762 2.125 157.125 C2.15013672 155.86236328 2.15013672 155.86236328 2.17578125 154.57421875 C2.18222656 153.76855469 2.18867187 152.96289062 2.1953125 152.1328125 C2.20578613 151.38918457 2.21625977 150.64555664 2.22705078 149.87939453 C2.1665597 147.75509765 2.1665597 147.75509765 0 146 C-0.24609566 143.47376823 -0.24609566 143.47376823 -0.24050903 140.21676636 C-0.24325836 138.98555054 -0.24600769 137.75433472 -0.24884033 136.48580933 C-0.24176159 135.11407374 -0.23449196 133.74233913 -0.22705078 132.37060547 C-0.22648688 130.93190519 -0.22680281 129.49320434 -0.22793579 128.05450439 C-0.22851113 124.14147438 -0.21672761 120.22856624 -0.20278788 116.31556463 C-0.19031063 112.22894752 -0.1891124 108.14232781 -0.18673706 104.05569458 C-0.18051343 96.3138037 -0.16409071 88.5719691 -0.14403808 80.83010304 C-0.11753331 70.37083455 -0.10671357 59.91155074 -0.09503365 49.45225716 C-0.0762107 32.96812925 -0.03637094 16.48412014 0 0 Z M7 148 C7 150.64 7 153.28 7 156 C8.32 155.34 9.64 154.68 11 154 C11 152.35 11 150.7 11 149 C9.68 148.67 8.36 148.34 7 148 Z " fill="#0000FF" transform="translate(0,0)"/>
<path d="M0 0 C0.99 0.33 1.98 0.66 3 1 C4.41922103 3.95671047 5.59213532 6.92085803 6.75 9.984375 C7.4256771 11.68764435 8.2070664 13.34805499 9 15 C9.99 15.33 10.98 15.66 12 16 C12 10.72 12 5.44 12 0 C15.84281736 1.92140868 17.80431927 3.5926816 20.75 6.625 C21.54921875 7.44226563 22.3484375 8.25953125 23.171875 9.1015625 C24.07679687 10.04128906 24.07679687 10.04128906 25 11 C25.020625 9.741875 25.04125 8.48375 25.0625 7.1875 C25.07410156 6.47980469 25.08570313 5.77210938 25.09765625 5.04296875 C25.08263217 2.79694539 25.08263217 2.79694539 24 0 C25.98 0 27.96 0 30 0 C29.67 5.94 29.34 11.88 29 18 C24.51584798 16.878962 23.3761196 15.70153664 20.25 12.4375 C19.45078125 11.61121094 18.6515625 10.78492188 17.828125 9.93359375 C17.22484375 9.29550781 16.6215625 8.65742188 16 8 C15.67 10.64 15.34 13.28 15 16 C15.66 16 16.32 16 17 16 C17 16.66 17 17.32 17 18 C13.04 18 9.08 18 5 18 C4.34 16.35 3.68 14.7 3 13 C1.68 13 0.36 13 -1 13 C-1.33 14.65 -1.66 16.3 -2 18 C-3.98 18 -5.96 18 -8 18 C-8 17.34 -8 16.68 -8 16 C-7.34 16 -6.68 16 -6 16 C-5.81824219 15.43152344 -5.63648438 14.86304688 -5.44921875 14.27734375 C-3.85915366 9.39298997 -2.09540222 4.68970973 0 0 Z M0 7 C0 7.99 0 8.98 0 10 C0.66 10 1.32 10 2 10 C1.67 9.01 1.34 8.02 1 7 C0.67 7 0.34 7 0 7 Z " fill="#213061" transform="translate(23,148)"/>
<path d="M0 0 C33.66 0 67.32 0 102 0 C102 3.63 102 7.26 102 11 C68.01 11 34.02 11 -1 11 C-1 10.67 -1 10.34 -1 10 C32.33 9.67 65.66 9.34 100 9 C100 6.36 100 3.72 100 1 C67 1 34 1 0 1 C0 0.67 0 0.34 0 0 Z " fill="#082075" transform="translate(7,124)"/>
<path d="M0 0 C0.33 0 0.66 0 1 0 C1.33 11.55 1.66 23.1 2 35 C5.63 35.33 9.26 35.66 13 36 C15 38 15 38 15.4375 40.875 C15 44 15 44 12.6875 46.375 C10 48 10 48 7 48 C7.33 50.64 7.66 53.28 8 56 C6.02 56 4.04 56 2 56 C2.02320313 54.72382813 2.04640625 53.44765625 2.0703125 52.1328125 C2.08906829 50.4635475 2.10726869 48.7942762 2.125 47.125 C2.14175781 46.28324219 2.15851563 45.44148438 2.17578125 44.57421875 C2.18222656 43.76855469 2.18867187 42.96289062 2.1953125 42.1328125 C2.20578613 41.38918457 2.21625977 40.64555664 2.22705078 39.87939453 C2.1665597 37.75509765 2.1665597 37.75509765 0 36 C-0.17517747 33.27514272 -0.23149133 30.65340638 -0.1953125 27.9296875 C-0.1924826 27.13345978 -0.18965271 26.33723206 -0.18673706 25.51687622 C-0.1755264 22.96943237 -0.15042062 20.42233789 -0.125 17.875 C-0.11497133 16.14974465 -0.10584528 14.42448381 -0.09765625 12.69921875 C-0.07558422 8.46601086 -0.04104867 4.2330647 0 0 Z M7 38 C7 40.64 7 43.28 7 46 C8.32 45.34 9.64 44.68 11 44 C11 42.35 11 40.7 11 39 C9.68 38.67 8.36 38.34 7 38 Z " fill="#070D27" transform="translate(0,110)"/>
<path d="M0 0 C3 0 3 0 4.71875 1.64453125 C5.3065625 2.35996094 5.894375 3.07539063 6.5 3.8125 C8.60091523 6.34189136 10.66641945 8.66641945 13 11 C13.33 8.03 13.66 5.06 14 2 C13.34 2 12.68 2 12 2 C12 1.34 12 0.68 12 0 C13.98 0 15.96 0 18 0 C17.67 5.94 17.34 11.88 17 18 C12.81269198 16.953173 11.70013995 16.1823078 9 13 C9 12.34 9 11.68 9 11 C8.34 11 7.68 11 7 11 C7 10.34 7 9.68 7 9 C6.34 9 5.68 9 5 9 C4.67 8.67 4.34 8.34 4 8 C4.33 11.3 4.66 14.6 5 18 C3.02 18 1.04 18 -1 18 C-0.505 9.09 -0.505 9.09 0 0 Z " fill="#1F3762" transform="translate(96,148)"/>
<path d="M0 0 C1.50433594 0.01353516 1.50433594 0.01353516 3.0390625 0.02734375 C3.80992188 0.03894531 4.58078125 0.05054688 5.375 0.0625 C5.375 1.7125 5.375 3.3625 5.375 5.0625 C4.385 4.7325 3.395 4.4025 2.375 4.0625 C-0.3178496 3.88437376 -2.91941368 3.97522302 -5.625 4.0625 C-6.9991663 5.22843462 -6.9991663 5.22843462 -7 8.4375 C-7.04308073 12.18668203 -7.04308073 12.18668203 -4.25 14 C-1.78799734 15.18756425 -1.78799734 15.18756425 0.375 15.0625 C0.375 12.7525 0.375 10.4425 0.375 8.0625 C2.355 8.0625 4.335 8.0625 6.375 8.0625 C6.23450482 9.54218324 6.08745174 11.02124516 5.9375 12.5 C5.85628906 13.32371094 5.77507812 14.14742187 5.69140625 14.99609375 C5.375 17.0625 5.375 17.0625 4.375 18.0625 C-0.92270036 18.68471313 -5.22026587 18.94390181 -9.8125 16.0625 C-12.33043006 11.89489162 -12.31431628 9.88771399 -11.625 5.0625 C-8.14096885 0.53325951 -5.52548727 -0.06424985 0 0 Z " fill="#253363" transform="translate(66.625,147.9375)"/>
<path d="M0 0 C2.31 0 4.62 0 7 0 C7 4.95 7 9.9 7 15 C8.98 14.67 10.96 14.34 13 14 C13 9.38 13 4.76 13 0 C14.98 0 16.96 0 19 0 C18.91227545 1.89666526 18.80408699 3.79238993 18.6875 5.6875 C18.62949219 6.74324219 18.57148437 7.79898438 18.51171875 8.88671875 C17.90952118 12.55047039 16.65262543 15.34737457 14 18 C6.81237638 18.58914948 6.81237638 18.58914948 3.75390625 16.37109375 C1.48594641 13.3050545 1.58609493 11.51981672 1.75 7.75 C1.78609375 6.67234375 1.8221875 5.5946875 1.859375 4.484375 C1.90578125 3.66453125 1.9521875 2.8446875 2 2 C1.34 2 0.68 2 0 2 C0 1.34 0 0.68 0 0 Z " fill="#1C2A5A" transform="translate(74,148)"/>
<path d="M0 0 C3 0 3 0 4.6875 1.25 C6 3 6 3 6 7 C5.01 7.495 5.01 7.495 4 8 C4.33 11.3 4.66 14.6 5 18 C3.02 18 1.04 18 -1 18 C-0.505 9.09 -0.505 9.09 0 0 Z " fill="#333E64" transform="translate(96,148)"/>
<path d="M0 0 C1.98 0 3.96 0 6 0 C5.67 5.94 5.34 11.88 5 18 C1 17 1 17 -0.75 14.4375 C-1.1625 13.633125 -1.575 12.82875 -2 12 C-1.01 11.67 -0.02 11.34 1 11 C1.020625 9.741875 1.04125 8.48375 1.0625 7.1875 C1.07410156 6.47980469 1.08570313 5.77210938 1.09765625 5.04296875 C1.08263217 2.79694539 1.08263217 2.79694539 0 0 Z " fill="#1E3160" transform="translate(47,148)"/>
<path d="M0 0 C1.50433594 0.01353516 1.50433594 0.01353516 3.0390625 0.02734375 C3.80992188 0.03894531 4.58078125 0.05054688 5.375 0.0625 C5.375 1.7125 5.375 3.3625 5.375 5.0625 C4.385 4.7325 3.395 4.4025 2.375 4.0625 C0.98060336 3.99584624 -0.41669875 3.97711801 -1.8125 4 C-3.070625 4.020625 -4.32875 4.04125 -5.625 4.0625 C-6.285 5.3825 -6.945 6.7025 -7.625 8.0625 C-8.285 8.0625 -8.945 8.0625 -9.625 8.0625 C-9.295 9.7125 -8.965 11.3625 -8.625 13.0625 C-9.615 12.4025 -10.605 11.7425 -11.625 11.0625 C-12.0625 8.1875 -12.0625 8.1875 -11.625 5.0625 C-8.01083353 0.60502801 -5.58606582 -0.06495425 0 0 Z " fill="#2D3E70" transform="translate(66.625,147.9375)"/>
<path d="M0 0 C0.99 0.33 1.98 0.66 3 1 C3 1.66 3 2.32 3 3 C2.01 3 1.02 3 0 3 C0.185625 3.598125 0.37125 4.19625 0.5625 4.8125 C1 7 1 7 0 10 C0.99 10 1.98 10 3 10 C3 10.66 3 11.32 3 12 C1.68 12.33 0.36 12.66 -1 13 C-1.33 14.65 -1.66 16.3 -2 18 C-3.98 18 -5.96 18 -8 18 C-8 17.34 -8 16.68 -8 16 C-7.34 16 -6.68 16 -6 16 C-5.81824219 15.43152344 -5.63648438 14.86304688 -5.44921875 14.27734375 C-3.85915366 9.39298997 -2.09540222 4.68970973 0 0 Z " fill="#1D2B57" transform="translate(23,148)"/>
<path d="M0 0 C1.32 0 2.64 0 4 0 C4.09706112 6.11485027 3.77040851 11.93303301 3 18 C2.01 17.67 1.02 17.34 0 17 C0 11.39 0 5.78 0 0 Z " fill="#2B3E70" transform="translate(3,147)"/>
<path d="M0 0 C1.98 0 3.96 0 6 0 C5.85923685 1.9587043 5.7122324 3.91696093 5.5625 5.875 C5.48128906 6.96554688 5.40007812 8.05609375 5.31640625 9.1796875 C5 12 5 12 4 14 C3.01 13.67 2.02 13.34 1 13 C0.67 8.71 0.34 4.42 0 0 Z " fill="#344868" transform="translate(87,148)"/>
<path d="M0 0 C1.98 0 3.96 0 6 0 C5.67 2.97 5.34 5.94 5 9 C4.01 9.33 3.02 9.66 2 10 C1.34 6.7 0.68 3.4 0 0 Z " fill="#3F5079" transform="translate(67,156)"/>
<path d="M0 0 C3.3 0 6.6 0 10 0 C10 1.65 10 3.3 10 5 C6.7 4.34 3.4 3.68 0 3 C0 2.01 0 1.02 0 0 Z " fill="#415280" transform="translate(62,148)"/>
<path d="M0 0 C0.99 0.33 1.98 0.66 3 1 C3 1.66 3 2.32 3 3 C2.01 3 1.02 3 0 3 C0.185625 3.598125 0.37125 4.19625 0.5625 4.8125 C1 7 1 7 0 10 C0.99 10 1.98 10 3 10 C3 10.66 3 11.32 3 12 C1.68 12 0.36 12 -1 12 C-1 11.01 -1 10.02 -1 9 C-1.66 9 -2.32 9 -3 9 C-2.01 6.03 -1.02 3.06 0 0 Z " fill="#070F46" transform="translate(23,148)"/>
<path d="M0 0 C3.25543229 0.34879632 4.01873107 1.02133261 6.25 3.5625 C6.8275 4.366875 7.405 5.17125 8 6 C7.01 7.485 7.01 7.485 6 9 C0.42857143 3.85714286 0.42857143 3.85714286 0 0 Z " fill="#1C265B" transform="translate(39,153)"/>
<path d="M0 0 C1.32 0 2.64 0 4 0 C4.66 2.31 5.32 4.62 6 7 C4.68 7 3.36 7 2 7 C0.5393715 4.35261084 0 3.10551666 0 0 Z " fill="#24356A" transform="translate(23,151)"/>
<path d="M0 0 C0.99 0.33 1.98 0.66 3 1 C3 3.31 3 5.62 3 8 C4.32 8.33 5.64 8.66 7 9 C4.69 9 2.38 9 0 9 C0 6.03 0 3.06 0 0 Z " fill="#1C3176" transform="translate(6,125)"/>
<path d="M0 0 C1.95766281 -0.08082094 3.91626728 -0.13910778 5.875 -0.1875 C7.51082031 -0.23970703 7.51082031 -0.23970703 9.1796875 -0.29296875 C10.11039063 -0.19628906 11.04109375 -0.09960938 12 0 C12.66 0.99 13.32 1.98 14 3 C13.34 3 12.68 3 12 3 C11.01 4.485 11.01 4.485 10 6 C9.67 5.01 9.34 4.02 9 3 C7.700625 2.87625 6.40125 2.7525 5.0625 2.625 C2.84765625 2.4140625 2.84765625 2.4140625 1 2 C0.67 1.34 0.34 0.68 0 0 Z " fill="#081248" transform="translate(1,146)"/>
<path d="M0 0 C0.99 0 1.98 0 3 0 C2.67 3.96 2.34 7.92 2 12 C1.34 12 0.68 12 0 12 C0 8.04 0 4.08 0 0 Z " fill="#344969" transform="translate(111,148)"/>
<path d="M0 0 C1.98 1.65 3.96 3.3 6 5 C5.34 6.32 4.68 7.64 4 9 C3.67 8.01 3.34 7.02 3 6 C2.34 6 1.68 6 1 6 C1 5.34 1 4.68 1 4 C0.34 4 -0.32 4 -1 4 C-0.67 2.68 -0.34 1.36 0 0 Z " fill="#161B47" transform="translate(102,153)"/>
<path d="M0 0 C1.98 0 3.96 0 6 0 C5.34 2.31 4.68 4.62 4 7 C3.34 7 2.68 7 2 7 C1.34 4.69 0.68 2.38 0 0 Z " fill="#2D3A6D" transform="translate(47,148)"/>
<path d="M0 0 C0.66 0 1.32 0 2 0 C1.67 3.63 1.34 7.26 1 11 C0.34 11 -0.32 11 -1 11 C-1.02688151 9.35425434 -1.04634123 7.70838587 -1.0625 6.0625 C-1.07410156 5.14597656 -1.08570312 4.22945312 -1.09765625 3.28515625 C-1 1 -1 1 0 0 Z " fill="#324171" transform="translate(77,149)"/>
<path d="M0 0 C0.33 0 0.66 0 1 0 C1 7.59 1 15.18 1 23 C0.67 23 0.34 23 0 23 C0 15.41 0 7.82 0 0 Z " fill="#000000" transform="translate(0,147)"/>
<path d="M0 0 C0.99 0.33 1.98 0.66 3 1 C3 2.65 3 4.3 3 6 C1.68 6 0.36 6 -1 6 C-0.67 4.02 -0.34 2.04 0 0 Z " fill="#243365" transform="translate(12,148)"/>
<path d="M0 0 C1.98 0 3.96 0 6 0 C5.67 0.99 5.34 1.98 5 3 C5 2.34 5 1.68 5 1 C4.01 1.495 4.01 1.495 3 2 C2.34227572 5.02934491 2.34227572 5.02934491 2 8 C1.67 8 1.34 8 1 8 C0.67 5.36 0.34 2.72 0 0 Z " fill="#33407B" transform="translate(67,156)"/>
</svg>
